<svg width="135" height="89" viewBox="0 0 135 89" fill="none" xmlns="http://www.w3.org/2000/svg">
<path d="M110.882 28.5356C110.882 28.1689 106.98 24.6141 106.98 24.6141C101.727 20.1188 95.2017 17.3949 88.3253 16.8266V11.125H93.8607C94.5948 11.125 95.2988 10.832 95.8178 10.3104C96.3368 9.78881 96.6284 9.08138 96.6284 8.34375C96.6284 7.60612 96.3368 6.89869 95.8178 6.37711C95.2988 5.85552 94.5948 5.5625 93.8607 5.5625H77.2544C76.5204 5.5625 75.8164 5.85552 75.2974 6.37711C74.7783 6.89869 74.4867 7.60612 74.4867 8.34375C74.4867 9.08138 74.7783 9.78881 75.2974 10.3104C75.8164 10.832 76.5204 11.125 77.2544 11.125H82.7899V16.8266C75.3673 17.4426 68.3662 20.5477 62.9112 25.6432C57.4561 30.7388 53.8637 37.5289 52.711 44.923C51.5583 52.3171 52.9123 59.8859 56.5554 66.4136C60.1985 72.9414 65.9192 78.0492 72.7987 80.9167C79.6782 83.7841 87.3172 84.2447 94.4886 82.2244C101.66 80.2042 107.947 75.8204 112.341 69.7772C116.735 63.734 118.98 56.3822 118.715 48.9027C118.45 41.4231 115.692 34.2501 110.882 28.5356ZM85.5576 77.875C80.0836 77.875 74.7325 76.2438 70.181 73.1878C65.6295 70.1317 62.0821 65.788 59.9872 60.7059C57.8924 55.6238 57.3443 50.0317 58.4122 44.6366C59.4802 39.2415 62.1162 34.2857 65.9869 30.3961C69.8576 26.5064 74.7892 23.8576 80.158 22.7844C85.5269 21.7113 91.0918 22.262 96.1492 24.3671C101.207 26.4722 105.529 30.037 108.57 34.6107C111.611 39.1844 113.235 44.5617 113.235 50.0625C113.235 53.7149 112.519 57.3315 111.128 60.7059C109.737 64.0803 107.698 67.1463 105.128 69.7289C102.558 72.3115 99.5071 74.3602 96.1492 75.7579C92.7912 77.1556 89.1922 77.875 85.5576 77.875Z" fill="#FF7C5F"/>
<path d="M88.3253 48.9222V33.375C88.3253 32.6374 88.0337 31.9299 87.5146 31.4084C86.9956 30.8868 86.2916 30.5938 85.5576 30.5938C84.8235 30.5938 84.1195 30.8868 83.6005 31.4084C83.0814 31.9299 82.7898 32.6374 82.7898 33.375V50.0625C82.7877 50.4285 82.8576 50.7914 82.9953 51.1302C83.133 51.4691 83.336 51.7773 83.5925 52.0372L91.8956 60.3809C92.1529 60.6416 92.459 60.8485 92.7963 60.9897C93.1336 61.1309 93.4953 61.2036 93.8607 61.2036C94.2261 61.2036 94.5878 61.1309 94.9251 60.9897C95.2624 60.8485 95.5685 60.6416 95.8258 60.3809C96.0852 60.1224 96.2911 59.8148 96.4316 59.4759C96.5721 59.1369 96.6445 58.7734 96.6445 58.4062C96.6445 58.0391 96.5721 57.6756 96.4316 57.3366C96.2911 56.9977 96.0852 56.6901 95.8258 56.4316L88.3253 48.9222Z" fill="#FF7C5F"/>
<rect x="18.917" y="30.2422" width="31.8153" height="5.18447" rx="2.59223" fill="#FF7C5F"/>
<rect x="17.1973" y="52.709" width="31.8153" height="5.18447" rx="2.59223" fill="#FF7C5F"/>
<rect x="33.5352" y="63.9414" width="17.1975" height="5.18447" rx="2.59223" fill="#FF7C5F"/>
<rect x="7.73877" y="41.4766" width="41.2739" height="5.18447" rx="2.59223" fill="#FF7C5F"/>
</svg>
