<svg width="20" height="20" viewBox="0 0 20 20" fill="none" xmlns="http://www.w3.org/2000/svg">
<path fill-rule="evenodd" clip-rule="evenodd" d="M4.95458 0.398389C4.86202 0.233584 4.7128 0.107957 4.53463 0.0448277C4.35646 -0.0183018 4.16143 -0.0146468 3.98574 0.0551152L3.93459 0.0754037C3.51636 0.242124 3.09769 0.407226 2.68158 0.579484C2.20566 0.776449 1.38308 1.09831 0.987195 1.41003L0.95197 1.43785L0.920852 1.46978C-0.122541 2.53183 -0.137166 4.05241 0.184409 5.41816C0.308489 5.9321 0.471629 6.43582 0.672405 6.92493C1.73951 9.56432 3.80289 12.196 5.80305 14.1964C7.8032 16.1969 10.4355 18.2598 13.0751 19.3268C14.4327 19.8756 16.1757 20.3101 17.5803 19.7118C17.934 19.5621 18.2564 19.3471 18.5306 19.0781L18.5625 19.0469L18.5901 19.0118C18.9025 18.6157 19.2253 17.7947 19.4227 17.3186C19.5957 16.9017 19.7616 16.4817 19.9268 16.0615L19.9455 16.0124C20.0146 15.8372 20.0181 15.643 19.9554 15.4654C19.8926 15.2879 19.7679 15.139 19.604 15.0461L15.9422 12.932C15.7609 12.8282 15.5459 12.8003 15.3441 12.8544C15.1424 12.9084 14.9702 13.04 14.865 13.2205C14.4007 14.0248 13.6804 14.6548 12.756 14.8439C12.316 14.9397 11.8603 14.9381 11.4209 14.8394C10.9815 14.7406 10.569 14.5471 10.2122 14.2722C9.36969 13.6283 8.57339 12.9261 7.82921 12.1707C7.07387 11.4265 6.37162 10.6303 5.72762 9.78792C5.45279 9.43108 5.25921 9.01853 5.16042 8.57911C5.06163 8.13968 5.06001 7.68398 5.15566 7.24387C5.34449 6.31978 5.97575 5.5995 6.78003 5.13556C6.96035 5.03026 7.09181 4.85803 7.1458 4.65632C7.1998 4.45461 7.17197 4.23975 7.06838 4.05845L4.95458 0.398389Z" fill="white"/>
</svg>
